<?xml version="1.0" encoding="UTF-8"?>
<!-- Generated by Pixelmator Pro 3.7.1 -->
<svg width="1080" height="1080" viewBox="0 0 1080 1080" xmlns="http://www.w3.org/2000/svg">
    <path id="M" fill="#000000" fill-rule="evenodd" stroke="none" visibility="hidden" d="M 1025 836.886353 C 1025 853.674255 1021.138733 867.943726 1013.416382 879.69519 C 1005.694092 891.446655 996.125061 900.344177 984.709167 906.387878 C 973.293457 912.431396 960.702759 915.621155 946.936707 915.956909 C 933.170654 916.292664 920.244019 913.942322 908.156799 908.906128 C 896.06958 903.86969 885.829041 895.979492 877.434998 885.235291 C 869.041138 874.490906 864.172791 860.725037 862.829712 843.937134 C 861.486694 826.477722 864.676392 811.872437 872.398743 800.120972 C 880.121094 788.369507 890.025879 779.472046 902.113281 773.428345 C 914.2005 767.384644 927.294861 764.195068 941.396667 763.859314 C 955.498657 763.52356 968.760681 765.873901 981.183838 770.910095 C 993.606873 775.946533 1004.015259 784.004639 1012.409119 795.084595 C 1020.802979 806.164673 1025 820.09845 1025 836.886353 Z M 766.131836 858.03894 C 765.460327 875.498413 759.920471 888.256958 749.512024 896.315247 C 739.103394 904.373291 727.855774 908.402466 715.768555 908.402466 C 704.352661 908.402466 693.608643 904.541199 683.535767 896.818848 C 673.463135 889.096313 667.755371 877.177185 666.412292 861.060791 C 663.054688 832.185486 659.193604 801.296387 654.828735 768.39209 C 650.463806 735.48761 645.595459 702.080261 640.223267 668.168701 C 634.851074 634.257141 628.639709 600.681885 621.588684 567.441895 C 614.537903 534.201843 606.983459 502.808899 598.925354 473.262207 C 588.180969 498.779724 577.94043 524.80072 568.203491 551.3255 C 558.466614 577.850342 548.226074 605.214355 537.481873 633.417969 C 524.051575 669.67981 510.621521 705.941162 497.19104 742.203003 C 483.760742 778.464966 469.994904 813.047485 455.893097 845.951721 C 443.805756 859.382019 429.368408 866.097046 412.580505 866.097046 C 399.821655 866.097046 386.055786 859.717773 371.282471 846.958984 L 188.966766 489.378418 C 186.280762 518.253723 183.594666 547.632141 180.908676 577.514526 C 178.22258 607.396973 175.536575 637.782654 172.850479 668.672363 L 153.712341 873.148071 C 148.340256 886.578308 141.121567 896.48291 132.056091 902.862427 C 122.990616 909.241882 113.757454 912.431396 104.356224 912.431396 C 92.26889 912.431396 81.356918 908.402466 71.619926 900.344177 C 61.883022 892.286072 56.343048 880.534607 55 865.089783 L 106.370697 325.193542 C 108.385269 312.434998 114.093124 302.530212 123.494263 295.479248 C 132.895493 288.428223 143.639587 284.902893 155.726913 284.902893 C 173.18634 284.902893 187.623718 292.960999 199.03952 309.077393 C 217.841904 341.981689 236.308319 376.396301 254.43927 412.322449 C 272.570221 448.248535 291.036621 484.677734 309.83902 521.611145 C 327.298431 556.530029 343.582489 588.930054 358.691589 618.8125 C 373.80069 648.694946 390.084747 679.416504 407.544159 710.977783 C 417.616913 685.460083 427.689484 659.271423 437.762146 632.410645 C 447.835022 605.550049 458.243256 578.018433 468.98761 549.814575 C 484.432465 508.180664 500.04483 466.883118 515.825623 425.920593 C 531.606262 384.958008 547.554565 345.675049 563.670715 308.070068 C 574.4151 289.939148 589.859741 280.873779 610.005066 280.873779 C 620.077942 280.873779 629.646973 284.063538 638.712341 290.44281 C 647.77771 296.822266 654.325073 306.391296 658.354004 319.150024 C 670.441467 360.112427 682.024841 403.088989 693.104797 448.080505 C 704.184937 493.07196 714.593201 538.734436 724.330261 585.06897 C 734.0672 631.403748 742.460999 677.737549 749.512024 724.072083 C 756.562805 770.40686 762.102905 815.062012 766.131836 858.03894 Z"/>
    <path id="path1" fill="#000000" fill-rule="evenodd" stroke="none" d="M 873.50824 802.682739 C 873.50824 788.340576 878.758362 775.919556 889.258911 765.419067 C 899.759399 754.918518 912.308533 749.668396 926.906738 749.668396 C 941.505005 749.668396 954.054138 754.918518 964.554626 765.419067 C 975.055176 775.919556 980.305298 788.468628 980.305298 803.066895 C 980.305298 817.921265 975.055176 830.598389 964.554626 841.098938 C 954.310242 851.343262 941.761108 856.465393 926.906738 856.465393 C 911.796326 856.465393 899.119141 851.343262 888.874756 841.098938 C 878.63031 830.854614 873.50824 818.049316 873.50824 802.682739 Z M 99.421875 845.708862 L 224.274521 208 L 427.880371 668.994385 L 638.785278 208 L 750.960571 845.708862 L 659.145874 845.708862 L 601.905762 487.669922 L 426.343719 872.984375 L 255.775803 487.285767 L 192.004913 845.708862 Z"/>
</svg>
